<mxfile host="65bd71144e">
    <diagram id="7_mrQk-GLUd0q8rhEBnn" name="ページ1">
        <mxGraphModel dx="604" dy="646" grid="1" gridSize="10" guides="1" tooltips="1" connect="1" arrows="1" fold="1" page="1" pageScale="1" pageWidth="827" pageHeight="1169" math="0" shadow="0">
            <root>
                <mxCell id="0"/>
                <mxCell id="1" parent="0"/>
                <mxCell id="3" value="PJ: datamart_dev" style="swimlane;startSize=20;horizontal=1;containerType=tree;" parent="1" vertex="1">
                    <mxGeometry x="240" y="120" width="120" height="120" as="geometry"/>
                </mxCell>
                <mxCell id="26" value="" style="endArrow=classic;html=1;exitX=1;exitY=0.5;exitDx=0;exitDy=0;" parent="3" source="3" edge="1">
                    <mxGeometry width="50" height="50" relative="1" as="geometry">
                        <mxPoint x="120" y="280" as="sourcePoint"/>
                        <mxPoint x="160" y="60" as="targetPoint"/>
                    </mxGeometry>
                </mxCell>
                <mxCell id="23" value="" style="endArrow=classic;html=1;exitX=1;exitY=0.5;exitDx=0;exitDy=0;" parent="1" source="15" edge="1">
                    <mxGeometry width="50" height="50" relative="1" as="geometry">
                        <mxPoint x="450" y="270" as="sourcePoint"/>
                        <mxPoint x="240" y="180" as="targetPoint"/>
                    </mxGeometry>
                </mxCell>
                <mxCell id="15" value="PJ: masters_dev" style="swimlane;startSize=20;horizontal=1;containerType=tree;" parent="1" vertex="1">
                    <mxGeometry x="60" y="40" width="120" height="160" as="geometry"/>
                </mxCell>
                <mxCell id="143" value="main_db" style="swimlane;startSize=20;horizontal=1;containerType=tree;" parent="15" vertex="1">
                    <mxGeometry x="20" y="40" width="80" height="40" as="geometry">
                        <mxRectangle x="40" y="80" width="80" height="20" as="alternateBounds"/>
                    </mxGeometry>
                </mxCell>
                <mxCell id="153" value="sales_db" style="swimlane;startSize=20;horizontal=1;containerType=tree;" parent="15" vertex="1">
                    <mxGeometry x="20" y="100" width="80" height="40" as="geometry">
                        <mxRectangle x="40" y="80" width="80" height="20" as="alternateBounds"/>
                    </mxGeometry>
                </mxCell>
                <mxCell id="172" value="PJ: reporets_dev" style="swimlane;startSize=20;horizontal=1;containerType=tree;" vertex="1" parent="1">
                    <mxGeometry x="400" y="120" width="120" height="120" as="geometry"/>
                </mxCell>
                <mxCell id="174" value="logs_dev" style="swimlane;startSize=20;horizontal=1;containerType=tree;" vertex="1" parent="1">
                    <mxGeometry x="60" y="240" width="120" height="160" as="geometry"/>
                </mxCell>
                <mxCell id="175" value="client_logs" style="swimlane;startSize=20;horizontal=1;containerType=tree;" vertex="1" parent="174">
                    <mxGeometry x="20" y="40" width="80" height="40" as="geometry">
                        <mxRectangle x="40" y="80" width="80" height="20" as="alternateBounds"/>
                    </mxGeometry>
                </mxCell>
                <mxCell id="176" value="server_logs" style="swimlane;startSize=20;horizontal=1;containerType=tree;" vertex="1" parent="174">
                    <mxGeometry x="20" y="100" width="80" height="40" as="geometry">
                        <mxRectangle x="40" y="80" width="80" height="20" as="alternateBounds"/>
                    </mxGeometry>
                </mxCell>
                <mxCell id="177" value="" style="endArrow=classic;html=1;exitX=1;exitY=0.5;exitDx=0;exitDy=0;" edge="1" parent="1" source="174">
                    <mxGeometry width="50" height="50" relative="1" as="geometry">
                        <mxPoint x="190" y="130.0000000000001" as="sourcePoint"/>
                        <mxPoint x="240" y="180" as="targetPoint"/>
                    </mxGeometry>
                </mxCell>
                <mxCell id="178" value="PJ: datamart_prod" style="swimlane;startSize=20;horizontal=1;containerType=tree;" vertex="1" parent="1">
                    <mxGeometry x="240" y="520" width="120" height="120" as="geometry"/>
                </mxCell>
                <mxCell id="179" value="" style="endArrow=classic;html=1;exitX=1;exitY=0.5;exitDx=0;exitDy=0;" edge="1" parent="178" source="178">
                    <mxGeometry width="50" height="50" relative="1" as="geometry">
                        <mxPoint x="120" y="280" as="sourcePoint"/>
                        <mxPoint x="160" y="60" as="targetPoint"/>
                    </mxGeometry>
                </mxCell>
                <mxCell id="180" value="" style="endArrow=classic;html=1;exitX=1;exitY=0.5;exitDx=0;exitDy=0;" edge="1" parent="1" source="181">
                    <mxGeometry width="50" height="50" relative="1" as="geometry">
                        <mxPoint x="450" y="670" as="sourcePoint"/>
                        <mxPoint x="240" y="580" as="targetPoint"/>
                    </mxGeometry>
                </mxCell>
                <mxCell id="181" value="PJ: masters_prod" style="swimlane;startSize=20;horizontal=1;containerType=tree;" vertex="1" parent="1">
                    <mxGeometry x="60" y="440" width="120" height="160" as="geometry"/>
                </mxCell>
                <mxCell id="182" value="main_db" style="swimlane;startSize=20;horizontal=1;containerType=tree;" vertex="1" parent="181">
                    <mxGeometry x="20" y="40" width="80" height="40" as="geometry">
                        <mxRectangle x="40" y="80" width="80" height="20" as="alternateBounds"/>
                    </mxGeometry>
                </mxCell>
                <mxCell id="183" value="sales_db" style="swimlane;startSize=20;horizontal=1;containerType=tree;" vertex="1" parent="181">
                    <mxGeometry x="20" y="100" width="80" height="40" as="geometry">
                        <mxRectangle x="40" y="80" width="80" height="20" as="alternateBounds"/>
                    </mxGeometry>
                </mxCell>
                <mxCell id="184" value="PJ: reporets_prod" style="swimlane;startSize=20;horizontal=1;containerType=tree;" vertex="1" parent="1">
                    <mxGeometry x="400" y="520" width="120" height="120" as="geometry"/>
                </mxCell>
                <mxCell id="185" value="logs_prod" style="swimlane;startSize=20;horizontal=1;containerType=tree;" vertex="1" parent="1">
                    <mxGeometry x="60" y="640" width="120" height="160" as="geometry"/>
                </mxCell>
                <mxCell id="186" value="client_logs" style="swimlane;startSize=20;horizontal=1;containerType=tree;" vertex="1" parent="185">
                    <mxGeometry x="20" y="40" width="80" height="40" as="geometry">
                        <mxRectangle x="40" y="80" width="80" height="20" as="alternateBounds"/>
                    </mxGeometry>
                </mxCell>
                <mxCell id="187" value="server_logs" style="swimlane;startSize=20;horizontal=1;containerType=tree;" vertex="1" parent="185">
                    <mxGeometry x="20" y="100" width="80" height="40" as="geometry">
                        <mxRectangle x="40" y="80" width="80" height="20" as="alternateBounds"/>
                    </mxGeometry>
                </mxCell>
                <mxCell id="188" value="" style="endArrow=classic;html=1;exitX=1;exitY=0.5;exitDx=0;exitDy=0;" edge="1" parent="1" source="185">
                    <mxGeometry width="50" height="50" relative="1" as="geometry">
                        <mxPoint x="190" y="530.0000000000001" as="sourcePoint"/>
                        <mxPoint x="240" y="580" as="targetPoint"/>
                    </mxGeometry>
                </mxCell>
            </root>
        </mxGraphModel>
    </diagram>
</mxfile>